<?xml version="1.0" encoding="UTF-8"?>
<svg width="662px" height="677px" viewBox="0 0 662 677" version="1.1" xmlns="http://www.w3.org/2000/svg" xmlns:xlink="http://www.w3.org/1999/xlink">
    <title>logo</title>
    <defs>
        <radialGradient cx="50%" cy="-3.55618313e-15%" fx="50%" fy="-3.55618313e-15%" r="100%" id="radialGradient-1">
            <stop stop-color="#384B6E" offset="0%"></stop>
            <stop stop-color="#111827" offset="100%"></stop>
        </radialGradient>
    </defs>
    <g id="logo" stroke="none" stroke-width="1" fill="none" fill-rule="evenodd">
        <path d="M359.5,16.7431578 L594.649599,152.506842 C612.594862,162.867544 623.649599,182.014911 623.649599,202.736316 L623.649599,474.263684 C623.649599,494.985089 612.594862,514.132456 594.649599,524.493158 L359.5,660.256842 C341.554738,670.617544 319.445262,670.617544 301.5,660.256842 L66.3504008,524.493158 C48.4051384,514.132456 37.3504008,494.985089 37.3504008,474.263684 L37.3504008,202.736316 C37.3504008,182.014911 48.4051384,162.867544 66.3504008,152.506842 L301.5,16.7431578 C319.445262,6.3824557 341.554738,6.3824557 359.5,16.7431578 Z" id="Polygon-Copy-2" fill-opacity="0.401551573" fill="#4576D5"></path>
        <path d="M360.5,32.7431578 L581.793193,160.506842 C599.738455,170.867544 610.793193,190.014911 610.793193,210.736316 L610.793193,466.263684 C610.793193,486.985089 599.738455,506.132456 581.793193,516.493158 L360.5,644.256842 C342.554738,654.617544 320.445262,654.617544 302.5,644.256842 L81.2068073,516.493158 C63.2615448,506.132456 52.2068073,486.985089 52.2068073,466.263684 L52.2068073,210.736316 C52.2068073,190.014911 63.2615448,170.867544 81.2068073,160.506842 L302.5,32.7431578 C320.445262,22.3824557 342.554738,22.3824557 360.5,32.7431578 Z" id="Polygon-Copy" fill-opacity="0.428212413" fill="#365A9F"></path>
        <path d="M360,55.7431578 L561.807621,172.256842 C579.752884,182.617544 590.807621,201.764911 590.807621,222.486316 L590.807621,455.513684 C590.807621,476.235089 579.752884,495.382456 561.807621,505.743158 L360,622.256842 C342.054738,632.617544 319.945262,632.617544 302,622.256842 L100.192379,505.743158 C82.2471164,495.382456 71.1923789,476.235089 71.1923789,455.513684 L71.1923789,222.486316 C71.1923789,201.764911 82.2471164,182.617544 100.192379,172.256842 L302,55.7431578 C319.945262,45.3824557 342.054738,45.3824557 360,55.7431578 Z" id="Polygon" fill="url(#radialGradient-1)"></path>
        <g id="NGXI" transform="translate(116.400000, 278.620000)" fill="#DFE4EE" fill-rule="nonzero" opacity="0.964029948">
            <polygon id="Path" points="111.784 126.38 81.346 126.38 30.438 49.306 30.438 126.38 0 126.38 0 1.424 30.438 1.424 81.346 78.854 81.346 1.424 111.784 1.424"></polygon>
            <path d="M216.804,40.94 C214.549333,36.7866667 211.315667,33.6123333 207.103,31.417 C202.890333,29.2216667 197.936,28.124 192.24,28.124 C182.390667,28.124 174.499333,31.3576667 168.566,37.825 C162.632667,44.2923333 159.666,52.9253333 159.666,63.724 C159.666,75.2346667 162.781,84.2236667 169.011,90.691 C175.241,97.1583333 183.814667,100.392 194.732,100.392 C202.208,100.392 208.527,98.4933333 213.689,94.696 C218.851,90.8986667 222.618667,85.44 224.992,78.32 L186.366,78.32 L186.366,55.892 L252.582,55.892 L252.582,84.194 C250.327333,91.7886667 246.500333,98.8493333 241.101,105.376 C235.701667,111.902667 228.848667,117.183333 220.542,121.218 C212.235333,125.252667 202.860667,127.27 192.418,127.27 C180.076667,127.27 169.070333,124.570333 159.399,119.171 C149.727667,113.771667 142.192333,106.266 136.793,96.654 C131.393667,87.042 128.694,76.0653333 128.694,63.724 C128.694,51.3826667 131.393667,40.3763333 136.793,30.705 C142.192333,21.0336667 149.698,13.4983333 159.31,8.099 C168.922,2.69966667 179.898667,0 192.24,0 C207.192,0 219.800333,3.61933333 230.065,10.858 C240.329667,18.0966667 247.123333,28.124 250.446,40.94 L216.804,40.94 Z" id="Path"></path>
            <polygon id="Path" points="346.032 126.38 320.578 88.11 298.15 126.38 263.618 126.38 303.668 62.834 262.728 1.424 298.15 1.424 323.248 39.16 345.32 1.424 379.852 1.424 340.158 64.436 381.454 126.38"></polygon>
            <polygon id="Path" points="427.2 1.424 427.2 126.38 396.762 126.38 396.762 1.424"></polygon>
        </g>
    </g>
</svg>