<?xml version="1.0" encoding="UTF-8"?>
<svg width="864px" height="337px" viewBox="0 0 864 337" version="1.1" xmlns="http://www.w3.org/2000/svg" xmlns:xlink="http://www.w3.org/1999/xlink">
    <title>npm</title>
    <g id="pattern" stroke="none" stroke-width="1" fill="none" fill-rule="evenodd">
        <g id="Extra-Small" transform="translate(-69.000000, -52.000000)" fill="#FFFFFF">
            <path d="M933,52 L933,340.618912 L501.5,340.618912 L501.5,389 L309.18525,389 L309.18525,340.618912 L69,340 L69,52 L933,52 Z M549.041434,100 L357.208287,100 L357.208287,340 L453.958566,340 L453.958566,291.666807 L549.041434,291.666807 L549.041434,100 Z M308.833148,100 L117,100 L117,291.666807 L212.916574,291.666807 L212.916574,148.333193 L260.458008,148.333193 L260.458008,291.666807 L308.833148,291.666807 L308.833148,100 Z M886,100 L597.416574,100 L597.416574,291.666807 L692.499443,291.666807 L692.499443,148.333193 L741.708287,148.333193 L741.708287,291.666807 L789.249721,291.666807 L789.249721,148.333193 L837.624861,148.333193 L837.624861,291.666807 L886,291.666807 L886,100 Z M500.666295,148.333193 L501.5,243.333614 L453.958566,243.333614 L453.958566,148.333193 L500.666295,148.333193 Z" id="npm"></path>
        </g>
    </g>
</svg>